<mxfile host="app.diagrams.net" agent="Mozilla/5.0 (Windows NT 10.0; Win64; x64) AppleWebKit/537.36 (KHTML, like Gecko) Chrome/126.0.0.0 Safari/537.36" version="24.7.10">
  <diagram name="Page-1" id="EmeGRj3lvGWJ7Elu1vUw">
    <mxGraphModel dx="1567" dy="907" grid="0" gridSize="10" guides="1" tooltips="1" connect="1" arrows="1" fold="1" page="1" pageScale="1" pageWidth="827" pageHeight="1169" math="0" shadow="0">
      <root>
        <mxCell id="0" />
        <mxCell id="1" parent="0" />
        <mxCell id="Fhx4kWc504bp52tTgYDt-35" style="edgeStyle=orthogonalEdgeStyle;rounded=0;orthogonalLoop=1;jettySize=auto;html=1;" edge="1" parent="1" source="Fhx4kWc504bp52tTgYDt-32" target="Fhx4kWc504bp52tTgYDt-34">
          <mxGeometry relative="1" as="geometry" />
        </mxCell>
        <mxCell id="Fhx4kWc504bp52tTgYDt-32" value="&lt;font style=&quot;font-size: 11px;&quot;&gt;User Input:&lt;/font&gt;&lt;div&gt;&lt;font style=&quot;font-size: 11px;&quot;&gt;Preferred Activities&lt;/font&gt;&lt;/div&gt;&lt;div&gt;&lt;span style=&quot;font-size: 11px; background-color: initial;&quot;&gt;Number of Passengers&lt;/span&gt;&lt;/div&gt;&lt;div&gt;&lt;span style=&quot;font-size: 11px; background-color: initial;&quot;&gt;Number of Days&lt;/span&gt;&lt;/div&gt;&lt;div style=&quot;&quot;&gt;&lt;span style=&quot;font-size: 11px; background-color: initial;&quot;&gt;Budget&lt;/span&gt;&lt;/div&gt;" style="shape=parallelogram;perimeter=parallelogramPerimeter;whiteSpace=wrap;html=1;fixedSize=1;align=center;" vertex="1" parent="1">
          <mxGeometry x="182.81" y="270" width="169" height="80" as="geometry" />
        </mxCell>
        <mxCell id="Fhx4kWc504bp52tTgYDt-38" style="edgeStyle=orthogonalEdgeStyle;rounded=0;orthogonalLoop=1;jettySize=auto;html=1;" edge="1" parent="1" source="Fhx4kWc504bp52tTgYDt-34" target="Fhx4kWc504bp52tTgYDt-36">
          <mxGeometry relative="1" as="geometry" />
        </mxCell>
        <mxCell id="Fhx4kWc504bp52tTgYDt-34" value="Validate Input&amp;nbsp;all required inputs are provided and valid" style="rounded=0;whiteSpace=wrap;html=1;" vertex="1" parent="1">
          <mxGeometry x="212.56" y="377" width="108.25" height="48" as="geometry" />
        </mxCell>
        <mxCell id="Fhx4kWc504bp52tTgYDt-40" style="edgeStyle=orthogonalEdgeStyle;rounded=0;orthogonalLoop=1;jettySize=auto;html=1;" edge="1" parent="1" source="Fhx4kWc504bp52tTgYDt-36" target="Fhx4kWc504bp52tTgYDt-39">
          <mxGeometry relative="1" as="geometry" />
        </mxCell>
        <mxCell id="Fhx4kWc504bp52tTgYDt-84" value="no" style="edgeStyle=orthogonalEdgeStyle;rounded=0;orthogonalLoop=1;jettySize=auto;html=1;entryX=1;entryY=0.5;entryDx=0;entryDy=0;" edge="1" parent="1" source="Fhx4kWc504bp52tTgYDt-36" target="Fhx4kWc504bp52tTgYDt-32">
          <mxGeometry relative="1" as="geometry">
            <Array as="points">
              <mxPoint x="362" y="470" />
              <mxPoint x="362" y="310" />
            </Array>
          </mxGeometry>
        </mxCell>
        <mxCell id="Fhx4kWc504bp52tTgYDt-36" value="check" style="rhombus;whiteSpace=wrap;html=1;" vertex="1" parent="1">
          <mxGeometry x="226.31" y="445" width="80" height="50" as="geometry" />
        </mxCell>
        <mxCell id="Fhx4kWc504bp52tTgYDt-51" style="edgeStyle=orthogonalEdgeStyle;rounded=0;orthogonalLoop=1;jettySize=auto;html=1;" edge="1" parent="1" source="Fhx4kWc504bp52tTgYDt-39" target="Fhx4kWc504bp52tTgYDt-50">
          <mxGeometry relative="1" as="geometry" />
        </mxCell>
        <mxCell id="Fhx4kWc504bp52tTgYDt-39" value="&lt;div style=&quot;&quot;&gt;&lt;div&gt;Fetch Data&lt;/div&gt;&lt;div&gt;Activities: Retrieve a list of activities based on user preferences.&lt;/div&gt;&lt;div&gt;Transport Options: Get available city transport options.&lt;/div&gt;&lt;div&gt;Costs: Fetch costs for activities and transport.&lt;/div&gt;&lt;/div&gt;" style="rounded=0;whiteSpace=wrap;html=1;align=center;" vertex="1" parent="1">
          <mxGeometry x="150.19" y="515" width="232.25" height="110" as="geometry" />
        </mxCell>
        <mxCell id="Fhx4kWc504bp52tTgYDt-66" style="edgeStyle=orthogonalEdgeStyle;rounded=0;orthogonalLoop=1;jettySize=auto;html=1;" edge="1" parent="1" source="Fhx4kWc504bp52tTgYDt-43" target="Fhx4kWc504bp52tTgYDt-64">
          <mxGeometry relative="1" as="geometry" />
        </mxCell>
        <mxCell id="Fhx4kWc504bp52tTgYDt-43" value="&lt;div&gt;Generate Itinerary:&lt;/div&gt;&lt;div&gt;Plan Activities: Create a schedule for activities based on the number of days.&lt;/div&gt;&lt;div&gt;Plan Transport: Arrange transport between activities.&lt;/div&gt;&lt;div&gt;Finalize Cost: Confirm the total cost.&lt;/div&gt;" style="rounded=0;whiteSpace=wrap;html=1;" vertex="1" parent="1">
          <mxGeometry x="140.31" y="715" width="253.5" height="101" as="geometry" />
        </mxCell>
        <mxCell id="Fhx4kWc504bp52tTgYDt-52" style="edgeStyle=orthogonalEdgeStyle;rounded=0;orthogonalLoop=1;jettySize=auto;html=1;entryX=0.5;entryY=0;entryDx=0;entryDy=0;" edge="1" parent="1" source="Fhx4kWc504bp52tTgYDt-50" target="Fhx4kWc504bp52tTgYDt-43">
          <mxGeometry relative="1" as="geometry" />
        </mxCell>
        <mxCell id="Fhx4kWc504bp52tTgYDt-55" value="no" style="edgeStyle=orthogonalEdgeStyle;rounded=0;orthogonalLoop=1;jettySize=auto;html=1;entryX=0.5;entryY=1;entryDx=0;entryDy=0;" edge="1" parent="1" source="Fhx4kWc504bp52tTgYDt-50" target="Fhx4kWc504bp52tTgYDt-54">
          <mxGeometry relative="1" as="geometry" />
        </mxCell>
        <mxCell id="Fhx4kWc504bp52tTgYDt-50" value="check budget" style="rhombus;whiteSpace=wrap;html=1;" vertex="1" parent="1">
          <mxGeometry x="212.06" y="648" width="108.5" height="40" as="geometry" />
        </mxCell>
        <mxCell id="Fhx4kWc504bp52tTgYDt-80" style="edgeStyle=orthogonalEdgeStyle;rounded=0;orthogonalLoop=1;jettySize=auto;html=1;" edge="1" parent="1" source="Fhx4kWc504bp52tTgYDt-54" target="Fhx4kWc504bp52tTgYDt-32">
          <mxGeometry relative="1" as="geometry">
            <Array as="points">
              <mxPoint x="558" y="310" />
            </Array>
          </mxGeometry>
        </mxCell>
        <mxCell id="Fhx4kWc504bp52tTgYDt-54" value="&lt;span style=&quot;font-size: 11px; text-wrap: nowrap;&quot;&gt;plese change the budget or cheange your prefernces&lt;/span&gt;" style="shape=parallelogram;perimeter=parallelogramPerimeter;whiteSpace=wrap;html=1;fixedSize=1;" vertex="1" parent="1">
          <mxGeometry x="412.81" y="415" width="290" height="30" as="geometry" />
        </mxCell>
        <mxCell id="Fhx4kWc504bp52tTgYDt-68" style="edgeStyle=orthogonalEdgeStyle;rounded=0;orthogonalLoop=1;jettySize=auto;html=1;entryX=0.5;entryY=0;entryDx=0;entryDy=0;" edge="1" parent="1" source="Fhx4kWc504bp52tTgYDt-64" target="Fhx4kWc504bp52tTgYDt-67">
          <mxGeometry relative="1" as="geometry" />
        </mxCell>
        <mxCell id="Fhx4kWc504bp52tTgYDt-64" value="&lt;div&gt;Show the itinerary to the user, including the schedule, activities, transport, and total cost.&lt;/div&gt;" style="shape=parallelogram;perimeter=parallelogramPerimeter;whiteSpace=wrap;html=1;fixedSize=1;" vertex="1" parent="1">
          <mxGeometry x="132" y="846" width="268.62" height="39" as="geometry" />
        </mxCell>
        <mxCell id="Fhx4kWc504bp52tTgYDt-73" style="edgeStyle=orthogonalEdgeStyle;rounded=0;orthogonalLoop=1;jettySize=auto;html=1;" edge="1" parent="1" source="Fhx4kWc504bp52tTgYDt-67" target="Fhx4kWc504bp52tTgYDt-72">
          <mxGeometry relative="1" as="geometry" />
        </mxCell>
        <mxCell id="Fhx4kWc504bp52tTgYDt-86" style="edgeStyle=orthogonalEdgeStyle;rounded=0;orthogonalLoop=1;jettySize=auto;html=1;entryX=1;entryY=0.5;entryDx=0;entryDy=0;" edge="1" parent="1" source="Fhx4kWc504bp52tTgYDt-67" target="Fhx4kWc504bp52tTgYDt-39">
          <mxGeometry relative="1" as="geometry">
            <Array as="points">
              <mxPoint x="442" y="930" />
              <mxPoint x="442" y="570" />
            </Array>
          </mxGeometry>
        </mxCell>
        <mxCell id="Fhx4kWc504bp52tTgYDt-67" value="confirmation user" style="rhombus;whiteSpace=wrap;html=1;" vertex="1" parent="1">
          <mxGeometry x="195.81" y="910" width="142" height="40" as="geometry" />
        </mxCell>
        <mxCell id="Fhx4kWc504bp52tTgYDt-71" value="End" style="ellipse;whiteSpace=wrap;html=1;" vertex="1" parent="1">
          <mxGeometry x="207.81" y="1021" width="118.19" height="33" as="geometry" />
        </mxCell>
        <mxCell id="Fhx4kWc504bp52tTgYDt-74" style="edgeStyle=orthogonalEdgeStyle;rounded=0;orthogonalLoop=1;jettySize=auto;html=1;entryX=0.5;entryY=0;entryDx=0;entryDy=0;" edge="1" parent="1" source="Fhx4kWc504bp52tTgYDt-72" target="Fhx4kWc504bp52tTgYDt-71">
          <mxGeometry relative="1" as="geometry" />
        </mxCell>
        <mxCell id="Fhx4kWc504bp52tTgYDt-72" value="Show the itinerary to the user." style="shape=parallelogram;perimeter=parallelogramPerimeter;whiteSpace=wrap;html=1;fixedSize=1;" vertex="1" parent="1">
          <mxGeometry x="151.69" y="975" width="230" height="20" as="geometry" />
        </mxCell>
        <mxCell id="Fhx4kWc504bp52tTgYDt-81" value="Strat" style="ellipse;whiteSpace=wrap;html=1;" vertex="1" parent="1">
          <mxGeometry x="213.06" y="208" width="118.19" height="33" as="geometry" />
        </mxCell>
        <mxCell id="Fhx4kWc504bp52tTgYDt-83" style="edgeStyle=orthogonalEdgeStyle;rounded=0;orthogonalLoop=1;jettySize=auto;html=1;entryX=0.529;entryY=0.015;entryDx=0;entryDy=0;entryPerimeter=0;" edge="1" parent="1" source="Fhx4kWc504bp52tTgYDt-81" target="Fhx4kWc504bp52tTgYDt-32">
          <mxGeometry relative="1" as="geometry" />
        </mxCell>
      </root>
    </mxGraphModel>
  </diagram>
</mxfile>
